<svg viewBox="0 0 1200 630" xmlns="http://www.w3.org/2000/svg" aria-label="RefusalRail social preview">
  <defs>
    <pattern id="grid" width="72" height="72" patternUnits="userSpaceOnUse">
      <path d="M72 0H0v72" fill="none" stroke="#ffffff" stroke-opacity=".13" stroke-width="1"/>
    </pattern>
  </defs>
  <rect width="1200" height="630" fill="#0037ff"/>
  <rect width="1200" height="630" fill="url(#grid)"/>
  <circle cx="1010" cy="96" r="250" fill="#ff7a45" opacity=".22"/>
  <text x="72" y="82" fill="#f8fbff" fill-opacity=".76" font-family="Menlo, monospace" font-size="18" font-weight="700">REFUSALRAIL</text>
  <text x="72" y="190" fill="#f8fbff" font-family="Inter, Helvetica, Arial, sans-serif" font-size="86" font-weight="900">The trade</text>
  <text x="72" y="278" fill="#f8fbff" font-family="Inter, Helvetica, Arial, sans-serif" font-size="86" font-style="italic" font-weight="560">fails.</text>
  <text x="72" y="374" fill="#f8fbff" font-family="Inter, Helvetica, Arial, sans-serif" font-size="86" font-weight="900">The proof ships.</text>
  <text x="76" y="452" fill="#f8fbff" fill-opacity=".86" font-family="Inter, Helvetica, Arial, sans-serif" font-size="28">Reject 1 unsafe RWA agent trade in 60 seconds.</text>
  <g font-family="Menlo, monospace" font-size="18" fill="#f8fbff">
    <rect x="76" y="498" width="196" height="42" fill="none" stroke="#f8fbff" stroke-opacity=".64"/>
    <text x="92" y="525">wallet receipt</text>
    <rect x="286" y="498" width="150" height="42" fill="none" stroke="#f8fbff" stroke-opacity=".64"/>
    <text x="302" y="525">policy hash</text>
    <rect x="450" y="498" width="162" height="42" fill="none" stroke="#f8fbff" stroke-opacity=".64"/>
    <text x="466" y="525">chain proof</text>
  </g>
  <g transform="translate(690 116)">
    <rect x="0" y="0" width="380" height="210" fill="#f8fbff" stroke="#f8fbff" stroke-width="10"/>
    <rect x="32" y="34" width="132" height="22" fill="#0b1019"/>
    <rect x="32" y="76" width="190" height="58" fill="#d12f3a"/>
    <rect x="238" y="76" width="100" height="58" fill="#0b1019"/>
    <rect x="32" y="154" width="306" height="20" fill="#0b1019" opacity=".86"/>
    <rect x="70" y="152" width="230" height="86" fill="#0b1019" opacity=".18"/>
    <rect x="44" y="150" width="220" height="86" fill="#f8fbff" stroke="#f8fbff" stroke-width="10"/>
    <rect x="72" y="178" width="78" height="18" fill="#0b1019"/>
    <rect x="72" y="208" width="140" height="14" fill="#d12f3a"/>
    <g transform="translate(124 182) rotate(-8)">
      <rect width="146" height="66" fill="#0b1019" fill-opacity=".72" stroke="#ff4a42" stroke-width="8"/>
      <text x="31" y="48" fill="#ff4a42" font-family="Inter, Helvetica, Arial, sans-serif" font-size="46" font-weight="900">NO</text>
    </g>
  </g>
  <text x="76" y="590" fill="#f8fbff" fill-opacity=".68" font-family="Menlo, monospace" font-size="15">Live URL · demo video · guizang deck · repo</text>
</svg>
