<svg xmlns="http://www.w3.org/2000/svg" viewBox="0 0 1600 900" role="img" aria-labelledby="title">
  <title id="title">Policy circuit breaker geometric map</title>
  <rect width="1600" height="900" fill="#fafaf8"/>
  <g stroke="#d4d4d2" stroke-width="1">
    <path d="M0 120h1600M0 240h1600M0 360h1600M0 480h1600M0 600h1600M0 720h1600"/>
    <path d="M160 0v900M320 0v900M480 0v900M640 0v900M800 0v900M960 0v900M1120 0v900M1280 0v900M1440 0v900"/>
  </g>
  <g fill="none" stroke="#0a0a0a" stroke-width="10" stroke-linejoin="miter">
    <rect x="120" y="190" width="410" height="520"/>
    <rect x="595" y="250" width="410" height="400"/>
    <rect x="1070" y="190" width="410" height="520"/>
  </g>
  <g stroke="#0a0a0a" stroke-width="10" stroke-linecap="square">
    <path d="M530 450h65M1005 450h65"/>
    <path d="M770 250v-72h520v72"/>
    <path d="M830 650v72H320v-72"/>
  </g>
  <rect x="1070" y="190" width="410" height="520" fill="#be261e"/>
  <g fill="none" stroke="#fafaf8" stroke-width="12" stroke-linecap="square">
    <path d="M1165 325l220 220M1385 325l-220 220"/>
  </g>
  <g fill="#0a0a0a">
    <rect x="180" y="645" width="54" height="54"/>
    <rect x="255" y="645" width="54" height="54"/>
    <rect x="330" y="645" width="54" height="54"/>
  </g>
  <g fill="#fafaf8">
    <rect x="1140" y="645" width="54" height="54"/>
    <rect x="1215" y="645" width="54" height="54"/>
    <rect x="1290" y="645" width="54" height="54"/>
  </g>
</svg>
