<svg xmlns="http://www.w3.org/2000/svg" width="390" height="844" viewBox="0 0 390 844">
  <rect width="390" height="844" fill="#080b12"/>
  <text x="24" y="54" fill="#f1f4f8" font-family="Arial, sans-serif" font-size="24" font-weight="700">RefusalRail</text>
  <text x="24" y="104" fill="#f1f4f8" font-family="Arial, sans-serif" font-size="29" font-weight="800">Reject 1 unsafe RWA trade.</text>
  <rect x="24" y="148" width="342" height="206" rx="16" fill="#101826" stroke="#2d3a51" stroke-width="1.5"/>
  <text x="44" y="194" fill="#f1f4f8" font-family="Arial, sans-serif" font-size="20" font-weight="700">Choose shock</text>
  <rect x="44" y="218" width="302" height="44" rx="10" fill="#b92822"/>
  <text x="64" y="247" fill="#fff" font-family="Arial, sans-serif" font-size="17" font-weight="700">MARKET_HALT</text>
  <rect x="44" y="278" width="142" height="44" rx="10" fill="#172236" stroke="#334057"/>
  <text x="58" y="306" fill="#dce5f2" font-family="Arial, sans-serif" font-size="15">STALE</text>
  <rect x="204" y="278" width="142" height="44" rx="10" fill="#172236" stroke="#334057"/>
  <text x="218" y="306" fill="#dce5f2" font-family="Arial, sans-serif" font-size="15">EXPOSURE</text>
  <rect x="24" y="382" width="342" height="84" rx="14" fill="#b92822"/>
  <text x="62" y="434" fill="#fff" font-family="Arial, sans-serif" font-size="21" font-weight="700">Let the agent try</text>
  <rect x="24" y="502" width="342" height="246" rx="16" fill="#101826" stroke="#2d3a51"/>
  <text x="44" y="550" fill="#f1f4f8" font-family="Arial, sans-serif" font-size="20" font-weight="700">Latest receipt</text>
  <g transform="translate(94 580) rotate(-9)">
    <rect x="0" y="0" width="190" height="86" rx="8" fill="none" stroke="#ec3b31" stroke-width="7"/>
    <text x="48" y="58" fill="#ec3b31" font-family="Arial Black, Arial, sans-serif" font-size="48">NO</text>
  </g>
  <text x="44" y="704" fill="#9ba9bd" font-family="Arial, sans-serif" font-size="14">proof hash appears after tap</text>
</svg>
